<?xml version="1.0" standalone="no"?>
<!DOCTYPE svg PUBLIC "-//W3C//DTD SVG 20010904//EN"
 "http://www.w3.org/TR/2001/REC-SVG-20010904/DTD/svg10.dtd">
<svg version="1.0" xmlns="http://www.w3.org/2000/svg"
 width="600.000000pt" height="120.000000pt" viewBox="0 0 600.000000 120.000000"
 preserveAspectRatio="xMidYMid meet">
<g transform="translate(0.000000,120.000000) scale(0.100000,-0.100000)"
fill="#000000" stroke="none">
<path d="M610 1143 c-36 -13 -59 -52 -179 -293 -211 -423 -215 -437 -162 -491
l29 -29 336 0 c220 0 343 4 359 11 25 11 57 57 57 82 0 22 -44 117 -200 431
-121 243 -137 270 -167 282 -34 15 -48 16 -73 7z m62 -35 c16 -4 58 -75 115
-193 13 -27 28 -57 34 -65 5 -8 13 -24 18 -35 5 -11 44 -92 86 -179 82 -167
100 -233 73 -260 -13 -12 -65 -15 -324 -17 -170 -1 -319 -2 -332 -1 -32 0 -70
28 -74 54 -2 13 5 41 15 63 11 22 19 41 19 42 -2 3 122 257 137 283 20 33 116
235 113 238 -1 1 4 10 13 18 8 9 15 22 15 30 0 8 7 14 15 14 8 0 15 4 15 9 0
8 17 8 62 -1z"/>
<path d="M618 828 c-9 -7 -28 -42 -44 -78 -15 -36 -38 -79 -50 -96 -13 -17
-20 -34 -17 -37 3 -4 -2 -18 -11 -31 -19 -30 -21 -60 -3 -74 17 -14 252 -14
283 0 30 14 30 34 -1 96 -14 28 -25 55 -25 61 0 6 -4 11 -10 11 -6 0 -9 3 -8
8 4 13 -13 52 -23 52 -5 0 -9 7 -9 16 0 23 -39 84 -54 84 -7 0 -19 -6 -28 -12z
m92 -144 c36 -75 67 -140 68 -145 2 -5 -59 -9 -138 -9 -78 0 -140 3 -138 8 2
4 31 65 66 136 34 70 62 132 62 137 0 29 22 -7 80 -127z"/>
<path d="M1194 1141 c-53 -23 -54 -28 -54 -409 l0 -353 25 -24 24 -25 299 0
c285 0 301 1 325 20 32 25 42 69 27 115 -21 63 -29 65 -277 65 l-223 0 0 279
c0 276 0 280 -22 305 -25 28 -89 42 -124 27z m98 -44 c16 -12 18 -41 18 -285
1 -246 3 -272 19 -291 18 -20 28 -21 239 -21 221 0 222 0 237 -23 18 -28 11
-79 -15 -102 -15 -13 -57 -16 -304 -16 -234 0 -289 3 -301 14 -8 8 -11 17 -8
21 4 3 2 6 -3 6 -9 0 -9 619 1 676 5 29 8 31 53 32 26 1 55 -4 64 -11z"/>
<path d="M1972 1135 c-17 -8 -37 -26 -42 -40 -6 -16 -10 -166 -10 -366 l0
-341 29 -29 c39 -39 106 -41 148 -5 l28 24 -2 281 -1 281 138 0 c146 0 170 -7
170 -49 0 -37 -32 -51 -116 -51 -60 0 -85 -5 -102 -18 -29 -23 -41 -68 -29
-112 10 -39 243 -335 285 -362 41 -27 107 -24 137 7 20 19 25 34 25 76 0 50
-1 53 -77 130 -50 52 -71 79 -59 79 70 0 127 93 134 222 3 50 0 89 -8 110 -21
51 -77 115 -128 145 l-47 28 -220 3 c-175 2 -227 -1 -253 -13z m500 -42 c27
-12 98 -78 98 -91 0 -5 5 -13 12 -20 13 -13 17 -37 17 -102 1 -68 -5 -97 -29
-141 -25 -49 -38 -63 -65 -67 -46 -8 -60 -50 -25 -75 11 -8 17 -17 14 -20 -4
-3 5 -12 20 -18 14 -7 26 -17 26 -24 0 -6 14 -24 30 -40 22 -22 30 -38 30 -64
0 -40 -6 -51 -35 -67 -43 -23 -112 18 -165 98 -14 21 -28 38 -32 38 -4 0 -25
26 -47 58 -22 31 -53 72 -70 90 -16 17 -27 32 -24 32 3 0 1 6 -5 13 -6 7 -12
30 -14 51 -3 54 10 61 137 67 52 2 64 7 88 32 34 37 34 54 -1 95 l-28 32 -138
0 c-176 0 -171 4 -171 -139 0 -240 -6 -437 -13 -448 -4 -7 -26 -16 -50 -21
-24 -6 -39 -6 -36 -1 3 5 -2 9 -10 9 -33 0 -37 36 -36 371 1 182 4 338 7 345
3 8 11 14 19 14 8 0 14 3 14 8 0 12 452 -2 482 -15z"/>
<path d="M2935 1140 c-59 -8 -121 -38 -151 -72 -44 -47 -58 -89 -57 -173 0
-90 15 -136 59 -180 53 -53 105 -68 266 -75 155 -7 178 -14 178 -55 0 -45 -19
-50 -246 -55 -203 -5 -215 -6 -236 -27 -31 -32 -32 -114 0 -145 22 -22 29 -23
232 -26 236 -4 308 7 370 56 109 87 114 295 9 385 -56 48 -96 58 -263 66 -129
6 -150 9 -162 26 -17 23 -17 27 0 51 13 17 31 19 228 24 263 6 268 8 268 108
-1 53 -14 77 -54 92 -31 11 -362 12 -441 0z m450 -44 c18 -13 23 -55 10 -96
-6 -19 -15 -20 -188 -20 -195 -1 -261 -10 -290 -41 -10 -10 -15 -19 -12 -19 3
0 1 -8 -4 -18 -12 -23 7 -59 41 -76 16 -8 66 -14 134 -15 60 -1 127 -7 149
-13 22 -5 45 -11 50 -13 39 -9 68 -30 96 -71 29 -43 32 -53 31 -123 -1 -121
-21 -157 -115 -201 -57 -28 -59 -28 -275 -29 -244 -1 -253 1 -256 64 -1 20 4
41 11 47 7 6 11 14 8 18 -2 3 10 6 28 5 18 -1 113 2 212 6 99 5 188 9 198 10
9 0 15 4 12 10 -4 5 -2 9 3 9 19 0 33 55 23 84 -17 42 -64 56 -188 55 -60 0
-123 4 -142 10 -18 6 -36 9 -40 8 -4 -1 -28 14 -53 33 -50 38 -63 68 -73 168
-3 35 1 66 11 95 17 43 58 89 84 95 8 2 18 9 22 15 4 7 8 9 8 6 0 -4 15 -3 33
1 17 4 127 8 243 9 162 1 214 -2 229 -13z"/>
<path d="M3573 1135 c-49 -21 -53 -52 -53 -403 0 -332 4 -368 48 -391 30 -16
94 -13 119 4 12 9 27 32 33 53 11 41 14 628 4 682 -5 21 -17 38 -38 51 -36 22
-69 23 -113 4z m115 -40 c2 -2 5 -159 5 -349 0 -321 -1 -347 -18 -366 -23 -25
-66 -26 -96 -1 l-24 19 -1 347 c-1 330 0 348 18 353 10 2 18 8 18 12 0 7 89
-6 98 -15z"/>
<path d="M4080 1137 c-41 -21 -50 -52 -50 -179 l0 -118 -90 0 c-95 0 -142 -14
-154 -45 -11 -30 -6 -100 9 -122 22 -31 73 -42 160 -36 l75 6 0 -122 c0 -162
15 -190 103 -191 38 0 53 5 72 25 l25 24 0 355 c0 195 -3 362 -6 371 -15 38
-96 57 -144 32z m120 -388 c0 -346 0 -351 -22 -374 -18 -19 -27 -21 -57 -14
-55 12 -61 28 -61 158 0 152 1 151 -137 151 -62 0 -102 4 -98 9 3 5 1 12 -5
16 -15 9 -12 81 4 94 8 7 54 14 103 15 132 5 131 4 135 157 2 70 6 131 11 135
12 13 91 21 110 12 16 -8 17 -35 17 -359z"/>
<path d="M4665 1140 c-72 -11 -179 -66 -226 -117 -190 -206 -129 -534 121
-656 61 -30 72 -32 170 -32 97 1 110 3 173 32 205 96 291 346 191 551 -78 159
-252 249 -429 222z m240 -70 c33 -19 64 -40 68 -47 4 -7 15 -13 24 -13 9 0 14
-3 10 -6 -3 -3 7 -19 21 -36 15 -16 27 -33 27 -36 1 -4 11 -27 23 -52 18 -36
23 -63 24 -130 0 -82 -19 -175 -41 -202 -47 -57 -60 -76 -55 -81 3 -3 -4 -8
-15 -12 -12 -3 -21 -11 -21 -16 0 -6 -4 -8 -9 -5 -4 3 -16 -3 -25 -13 -10 -11
-29 -22 -44 -26 -15 -4 -29 -10 -32 -15 -11 -17 -130 -26 -200 -15 -52 8 -147
52 -169 79 -7 9 -18 13 -25 9 -6 -3 -8 -3 -4 1 4 5 -5 20 -19 35 -70 73 -105
218 -79 330 14 58 48 135 66 146 6 4 8 11 4 16 -3 5 0 8 8 7 7 -2 12 3 11 10
-2 6 3 12 10 12 6 0 25 14 41 31 16 16 42 33 57 36 16 3 29 10 29 15 0 6 7 8
15 5 8 -4 17 -2 20 2 2 5 53 8 112 7 103 -2 111 -3 168 -36z"/>
<path d="M4700 973 c-108 -18 -189 -108 -198 -219 -4 -52 -1 -70 22 -118 15
-31 31 -54 37 -51 5 4 8 1 7 -6 -2 -7 7 -18 19 -24 13 -7 20 -15 16 -18 -3 -4
3 -7 13 -7 11 0 24 -4 30 -10 15 -15 126 -19 154 -5 14 7 31 10 39 7 8 -3 11
0 7 7 -4 6 -1 11 6 11 23 0 74 62 93 112 16 42 17 96 3 169 -4 20 -51 89 -60
89 -5 0 -16 8 -26 18 -32 32 -111 54 -162 45z m128 -57 c101 -52 134 -176 77
-287 -21 -41 -74 -77 -131 -90 -128 -29 -244 66 -244 201 0 153 159 247 298
176z"/>
<path d="M5293 1143 c-13 -2 -32 -16 -43 -30 -19 -25 -20 -40 -20 -380 l0
-354 25 -24 c18 -19 35 -25 69 -25 104 0 106 6 106 340 l0 270 135 0 c122 0
137 -2 155 -20 11 -11 20 -24 20 -30 0 -6 -9 -19 -20 -30 -17 -17 -33 -20
-101 -20 -76 0 -82 -2 -110 -29 -53 -53 -32 -148 38 -172 51 -16 193 -5 241
21 118 61 175 187 137 302 -23 70 -62 118 -127 154 l-53 29 -215 2 c-118 0
-225 -1 -237 -4z m490 -52 c10 -7 17 -11 17 -8 0 16 72 -68 84 -98 24 -57 23
-145 -2 -196 -27 -55 -111 -119 -156 -119 -17 0 -66 -2 -108 -3 -43 -2 -76 -1
-73 1 3 3 -4 11 -14 19 -15 10 -19 23 -17 52 4 55 21 67 93 70 80 3 116 10
125 24 4 7 8 8 9 2 2 -15 17 37 18 62 1 12 -11 34 -26 48 -27 24 -32 25 -171
25 -141 0 -143 0 -152 -24 -5 -13 -9 -142 -10 -287 -1 -259 -1 -263 -23 -278
-20 -15 -85 -35 -73 -23 3 3 -4 10 -16 16 -12 6 -25 21 -28 34 -3 13 -3 171 0
353 4 278 7 331 20 340 25 16 483 7 503 -10z"/>
<path d="M240 235 c0 -3 14 -27 30 -53 19 -31 30 -63 30 -86 0 -29 4 -36 20
-36 16 0 20 7 20 38 0 25 10 54 30 85 36 57 36 57 10 57 -15 0 -27 -12 -40
-41 l-18 -42 -21 42 c-14 27 -28 41 -41 41 -11 0 -20 -2 -20 -5z"/>
<path d="M809 236 c-2 -2 -3 -43 -1 -90 3 -66 7 -86 18 -86 10 0 14 12 14 40
l0 40 41 0 41 0 -4 -40 c-3 -33 0 -40 14 -40 16 0 18 10 18 91 0 81 -2 90 -17
87 -14 -3 -17 -11 -15 -41 l4 -37 -41 2 c-41 1 -41 2 -41 40 0 25 -5 38 -13
38 -8 0 -16 -2 -18 -4z"/>
<path d="M1360 235 c-1 -3 -1 -42 -1 -87 -1 -68 2 -84 15 -86 14 -3 16 9 16
87 0 74 -3 91 -15 91 -8 0 -15 -2 -15 -5z"/>
<path d="M1600 150 c0 -85 1 -90 21 -90 19 0 21 4 16 34 -6 35 -5 35 36 38 55
4 54 22 0 26 -38 3 -43 6 -43 28 0 22 4 24 45 24 33 0 45 4 45 15 0 12 -13 15
-60 15 l-60 0 0 -90z"/>
<path d="M2200 150 c0 -85 1 -90 21 -90 18 0 21 5 17 35 l-4 35 43 0 c32 0 43
4 43 15 0 11 -11 15 -43 15 -39 0 -43 2 -42 23 1 18 8 22 43 25 29 2 42 8 42
18 0 11 -14 14 -60 14 l-60 0 0 -90z"/>
<path d="M3140 211 c0 -28 -2 -30 -29 -25 -24 5 -32 1 -46 -20 -33 -50 10
-126 55 -98 12 7 20 8 20 2 0 -5 8 -10 18 -10 16 0 18 9 17 87 -1 74 -4 88
-18 91 -13 3 -17 -4 -17 -27z m-2 -90 c-2 -18 -10 -27 -25 -29 -23 -3 -29 9
-23 48 6 43 53 24 48 -19z"/>
<path d="M3250 150 c0 -85 1 -90 21 -90 19 0 20 4 15 35 -6 31 -4 35 13 35 14
0 25 -11 35 -35 11 -25 21 -35 36 -35 l22 0 -22 37 c-19 32 -20 37 -6 45 20
11 21 62 1 78 -9 7 -38 14 -65 16 l-50 4 0 -90z m84 54 c37 -14 12 -54 -33
-54 -13 0 -18 8 -19 30 -1 31 15 38 52 24z"/>
<path d="M3530 150 c0 -83 1 -90 20 -90 19 0 20 7 20 90 0 83 -1 90 -20 90
-19 0 -20 -7 -20 -90z"/>
<path d="M3594 229 c-10 -17 13 -36 27 -22 12 12 4 33 -11 33 -5 0 -12 -5 -16
-11z"/>
<path d="M3780 150 c0 -73 3 -90 15 -90 8 0 15 5 15 12 0 9 3 9 12 0 30 -30
78 6 78 59 0 45 -50 75 -78 47 -9 -9 -12 -4 -12 25 0 26 -4 37 -15 37 -12 0
-15 -17 -15 -90z m80 5 c7 -9 10 -25 6 -41 -5 -19 -12 -25 -29 -22 -25 3 -35
41 -17 64 16 18 24 18 40 -1z"/>
<path d="M3920 150 c0 -73 3 -90 15 -90 12 0 15 17 15 90 0 73 -3 90 -15 90
-12 0 -15 -17 -15 -90z"/>
<path d="M4166 231 c-3 -5 -5 -34 -5 -65 2 -69 26 -106 69 -106 52 0 71 27 76
108 4 66 2 72 -16 72 -17 0 -19 -8 -22 -72 l-3 -73 -30 0 -30 0 -3 73 c-2 54
-6 72 -17 72 -8 0 -16 -4 -19 -9z"/>
<path d="M4481 231 c-8 -5 -10 -14 -7 -20 9 -13 33 -15 40 -2 9 14 -18 31 -33
22z"/>
<path d="M4663 225 c0 -8 4 -12 9 -9 5 3 6 10 3 15 -9 13 -12 11 -12 -6z"/>
<path d="M5017 234 c-14 -14 -7 -35 11 -32 9 2 17 10 17 17 0 16 -18 25 -28
15z"/>
<path d="M5378 228 c-55 -20 -47 -70 15 -91 23 -7 42 -20 42 -28 0 -20 -54
-24 -61 -5 -8 20 -34 21 -34 2 0 -21 40 -46 72 -46 27 0 68 30 68 50 0 16 -38
50 -56 50 -8 0 -24 5 -35 11 -16 8 -18 13 -8 25 15 18 48 18 55 -1 8 -19 34
-20 34 -1 0 30 -51 49 -92 34z"/>
<path d="M5500 238 c-1 -2 -2 -42 -3 -91 -2 -77 0 -87 16 -87 14 0 17 9 17 49
0 32 5 51 14 54 22 9 36 -14 36 -60 0 -32 4 -43 15 -43 11 0 15 13 15 54 0 61
-16 82 -55 72 -23 -6 -25 -3 -25 24 0 20 -5 30 -15 30 -8 0 -15 -1 -15 -2z"/>
<path d="M2604 205 c3 -9 0 -15 -9 -15 -8 0 -15 -7 -15 -15 0 -8 6 -15 13 -15
9 0 12 -11 9 -33 -2 -22 2 -39 13 -50 21 -21 45 -22 45 -2 0 8 -4 15 -10 15
-5 0 -10 16 -10 35 0 19 5 35 10 35 6 0 10 7 10 15 0 8 -4 15 -10 15 -5 0 -10
7 -10 15 0 9 -9 15 -21 15 -15 0 -19 -5 -15 -15z"/>
<path d="M5080 205 c0 -8 -4 -15 -10 -15 -5 0 -10 -7 -10 -15 0 -8 5 -15 10
-15 6 0 10 -18 10 -40 0 -38 18 -60 49 -60 16 0 13 27 -2 33 -19 7 -20 67 -1
67 8 0 14 7 14 15 0 8 -7 15 -15 15 -9 0 -12 6 -9 15 4 10 0 15 -15 15 -12 0
-21 -6 -21 -15z"/>
<path d="M396 168 c-22 -31 -20 -64 4 -88 41 -41 100 -13 100 48 0 17 -7 38
-16 46 -23 24 -70 20 -88 -6z m72 -47 c-2 -18 -10 -27 -25 -29 -13 -2 -23 1
-23 6 0 6 -3 17 -6 25 -3 8 2 22 11 31 23 22 47 3 43 -33z"/>
<path d="M520 144 c0 -69 11 -82 70 -81 l50 1 0 63 c0 56 -2 63 -20 63 -17 0
-20 -7 -20 -50 0 -43 -3 -50 -20 -50 -17 0 -20 7 -20 50 0 43 -3 50 -20 50
-17 0 -20 -7 -20 -46z"/>
<path d="M660 124 c0 -57 2 -64 20 -64 17 0 20 7 20 50 0 43 3 50 20 50 11 0
20 6 20 14 0 9 -13 13 -40 13 l-40 0 0 -63z"/>
<path d="M984 173 c-17 -17 -17 -18 0 -21 9 -2 23 2 31 8 15 12 35 6 35 -11 0
-5 -7 -9 -15 -9 -31 0 -66 -24 -63 -43 5 -30 34 -45 58 -29 12 7 20 8 20 2 0
-5 7 -10 15 -10 19 0 21 100 3 118 -18 18 -64 15 -84 -5z m66 -67 c0 -18 -31
-29 -44 -16 -8 8 -7 14 4 20 22 14 40 12 40 -4z"/>
<path d="M1116 174 c-22 -21 -5 -50 34 -57 16 -4 30 -11 30 -17 0 -13 -26 -13
-50 0 -25 13 -35 -4 -14 -24 19 -19 54 -21 78 -3 26 19 16 49 -19 60 -37 12
-39 13 -30 27 5 8 10 8 20 0 8 -7 22 -10 31 -8 17 3 17 4 0 21 -22 21 -59 22
-80 1z"/>
<path d="M1243 183 c-7 -2 -13 -15 -13 -29 0 -18 7 -25 32 -32 34 -8 51 -32
23 -32 -9 0 -25 5 -36 10 -15 8 -19 7 -19 -4 0 -36 67 -47 96 -15 19 21 18 21
-5 40 -13 10 -32 19 -42 19 -10 0 -19 4 -19 9 0 18 19 22 39 9 25 -15 39 -4
21 17 -12 14 -52 19 -77 8z"/>
<path d="M1426 174 c-22 -21 -20 -77 2 -97 25 -23 55 -21 83 3 l24 20 -44 -3
c-28 -1 -45 3 -48 11 -3 8 9 12 41 12 52 0 60 16 26 50 -24 24 -63 26 -84 4z
m64 -19 c11 -13 8 -15 -19 -15 -31 0 -42 14 -18 23 20 9 24 8 37 -8z"/>
<path d="M1740 134 c0 -30 0 -57 -1 -61 0 -5 7 -9 15 -11 13 -3 16 6 16 43 0
38 4 48 20 52 34 9 23 31 -15 31 l-35 0 0 -54z"/>
<path d="M1836 174 c-22 -21 -20 -77 2 -97 21 -19 45 -21 73 -7 33 18 22 31
-21 24 -33 -5 -40 -4 -40 10 0 12 10 16 45 16 44 0 44 0 34 27 -6 15 -16 31
-22 35 -20 13 -55 9 -71 -8z m51 -32 c-34 -4 -48 5 -27 18 8 5 22 4 34 -3 20
-11 20 -12 -7 -15z"/>
<path d="M1970 170 c-11 -11 -20 -31 -20 -45 0 -55 69 -85 105 -45 17 19 16
19 -25 17 -27 -1 -45 3 -47 11 -3 8 9 12 41 12 38 0 46 3 46 18 0 25 -31 52
-58 52 -12 0 -31 -9 -42 -20z m54 -6 c27 -10 18 -24 -15 -24 -27 0 -30 2 -19
15 14 17 13 17 34 9z"/>
<path d="M2353 183 c-17 -6 -17 -33 0 -33 7 0 18 5 24 11 6 6 16 8 22 5 20
-13 11 -24 -23 -30 -39 -7 -56 -37 -36 -61 15 -18 56 -20 63 -2 4 10 6 10 6 0
1 -7 8 -13 16 -13 19 0 21 100 3 118 -12 12 -52 15 -75 5z m57 -77 c0 -16 -27
-29 -41 -20 -15 9 -10 22 9 27 29 8 32 7 32 -7z"/>
<path d="M2476 174 c-27 -26 -15 -46 37 -58 15 -3 27 -11 27 -16 0 -13 -30
-13 -50 -1 -23 15 -33 1 -14 -20 20 -23 67 -25 84 -4 18 22 8 47 -25 58 -37
12 -39 13 -31 26 5 7 15 7 31 -1 30 -13 43 -5 25 17 -16 20 -64 19 -84 -1z"/>
<path d="M2794 173 c-17 -17 -17 -18 0 -21 9 -2 23 2 31 8 14 12 35 6 35 -9 0
-4 -17 -12 -37 -17 -31 -7 -38 -14 -38 -33 0 -33 29 -50 55 -33 12 7 20 8 20
2 0 -5 7 -10 15 -10 19 0 21 100 3 118 -18 18 -64 15 -84 -5z m66 -67 c0 -18
-31 -29 -44 -16 -8 8 -7 14 4 20 22 14 40 12 40 -4z"/>
<path d="M2917 127 c1 -48 5 -63 17 -65 13 -3 16 6 16 46 0 33 5 52 14 55 22
9 36 -14 36 -60 0 -32 4 -43 15 -43 11 0 15 13 15 54 0 63 -9 73 -70 74 l-45
0 2 -61z"/>
<path d="M3410 170 c-27 -27 -25 -62 3 -88 29 -27 58 -28 82 -2 17 19 16 19
-25 17 -27 -1 -45 3 -47 11 -3 8 9 12 41 12 38 0 46 3 46 18 0 25 -31 52 -58
52 -12 0 -31 -9 -42 -20z m70 -20 c0 -11 -49 -19 -55 -9 -3 4 2 12 12 17 18
10 43 5 43 -8z"/>
<path d="M3590 125 c0 -55 3 -65 18 -65 14 0 17 10 17 65 0 55 -3 65 -17 65
-15 0 -18 -10 -18 -65z"/>
<path d="M3660 175 c-18 -21 -4 -32 21 -17 20 13 39 9 39 -9 0 -5 -9 -9 -19
-9 -10 0 -29 -8 -41 -18 -19 -16 -21 -22 -11 -40 13 -24 40 -29 59 -10 9 9 12
9 12 0 0 -7 7 -12 15 -12 22 0 22 115 -1 124 -28 11 -61 6 -74 -9z m60 -69 c0
-18 -31 -29 -44 -16 -8 8 -7 14 4 20 22 14 40 12 40 -4z"/>
<path d="M3986 168 c-22 -31 -20 -64 4 -88 26 -26 62 -26 85 0 19 21 19 21
-25 18 -27 -2 -44 1 -47 10 -3 8 9 12 41 12 50 0 57 10 30 48 -10 14 -26 22
-44 22 -18 0 -34 -8 -44 -22z m64 -13 c11 -13 8 -15 -20 -15 -28 0 -31 2 -20
15 7 8 16 15 20 15 4 0 13 -7 20 -15z"/>
<path d="M4330 123 c0 -56 2 -63 19 -63 17 0 20 8 23 53 2 38 7 52 18 52 11 0
16 -14 18 -52 3 -45 6 -53 23 -53 16 0 19 7 19 46 0 70 -11 83 -70 82 l-50 -1
0 -64z"/>
<path d="M4475 125 c0 -55 3 -65 18 -65 14 0 17 10 17 65 0 55 -3 65 -17 65
-15 0 -18 -10 -18 -65z"/>
<path d="M4543 125 c17 -51 26 -65 42 -65 16 0 25 14 42 65 20 61 20 65 3 65
-13 0 -21 -13 -30 -47 l-13 -48 -15 48 c-11 32 -21 47 -33 47 -16 0 -16 -5 4
-65z"/>
<path d="M4666 168 c-22 -31 -20 -64 4 -88 25 -25 62 -26 85 0 17 19 16 19
-25 17 -27 -1 -45 3 -47 11 -3 8 9 12 41 12 38 0 46 3 46 18 0 48 -76 70 -104
30z m64 -13 c11 -13 8 -15 -20 -15 -28 0 -31 2 -20 15 7 8 16 15 20 15 4 0 13
-7 20 -15z"/>
<path d="M4790 124 c0 -57 2 -64 20 -64 17 0 20 7 20 50 0 43 3 50 20 50 11 0
20 6 20 14 0 9 -13 13 -40 13 l-40 0 0 -63z"/>
<path d="M4889 174 c-16 -20 -1 -46 31 -54 13 -3 25 -11 28 -18 4 -14 -34 -16
-43 -2 -9 15 -25 12 -25 -5 0 -39 93 -44 105 -5 9 28 1 37 -40 44 -35 7 -44
19 -25 31 6 4 17 1 25 -5 8 -6 22 -10 31 -8 17 3 17 4 0 21 -22 21 -69 22 -87
1z"/>
<path d="M5010 125 c0 -51 3 -65 15 -65 12 0 15 14 15 65 0 51 -3 65 -15 65
-12 0 -15 -14 -15 -65z"/>
<path d="M5175 124 c25 -67 25 -84 -1 -84 -8 0 -14 -7 -14 -15 0 -16 27 -20
46 -7 6 4 24 41 40 82 16 41 31 78 32 82 2 5 -5 8 -15 8 -14 0 -24 -13 -35
-47 l-15 -48 -13 48 c-9 35 -17 47 -31 47 -18 0 -17 -4 6 -66z"/>
<path d="M5655 176 c-13 -9 -19 -26 -19 -51 0 -25 6 -42 19 -51 44 -33 98 -1
98 58 0 51 -55 76 -98 44z m63 -55 c-4 -38 -42 -36 -46 3 -2 16 2 32 9 37 20
12 40 -11 37 -40z"/>
<path d="M5771 100 c0 -85 1 -90 20 -90 18 0 21 5 17 35 -4 37 1 42 19 24 17
-17 50 -1 63 31 9 23 9 34 -2 57 -12 25 -19 28 -65 30 l-52 2 0 -89z m87 21
c-2 -18 -9 -26 -23 -26 -24 0 -33 38 -14 61 17 21 41 -2 37 -35z"/>
<path d="M2095 59 c-12 -54 17 -51 30 4 6 20 4 27 -8 27 -9 0 -18 -13 -22 -31z"/>
<path d="M2680 78 c0 -7 -3 -23 -6 -35 -5 -17 -2 -23 9 -23 8 0 17 10 21 22 9
36 7 48 -9 48 -8 0 -15 -6 -15 -12z"/>
</g>
</svg>
