<?xml version="1.0" standalone="no"?>
<!DOCTYPE svg PUBLIC "-//W3C//DTD SVG 20010904//EN"
 "http://www.w3.org/TR/2001/REC-SVG-20010904/DTD/svg10.dtd">
<svg version="1.0" xmlns="http://www.w3.org/2000/svg"
 width="1000.000000pt" height="200.000000pt" viewBox="0 0 1000.000000 200.000000"
 preserveAspectRatio="xMidYMid meet">

<g transform="translate(0.000000,200.000000) scale(0.100000,-0.100000)"
fill="#000000" stroke="none">
<path d="M775 1738 c-80 -29 -88 -42 -428 -743 -170 -351 -207 -436 -207 -474
0 -42 39 -109 78 -133 l37 -23 555 -3 c490 -2 560 -1 597 13 76 29 123 114
104 183 -16 54 -83 196 -311 657 -120 242 -228 453 -241 469 -25 32 -92 66
-129 65 -14 0 -38 -5 -55 -11z m170 -784 c63 -130 115 -238 115 -240 0 -8
-460 -4 -460 4 -1 9 222 472 227 472 2 0 55 -106 118 -236z"/>
<path d="M1780 1739 c-19 -6 -46 -20 -59 -32 -51 -47 -51 -44 -51 -659 0 -632
-2 -615 63 -662 28 -20 41 -21 520 -24 l492 -3 44 23 c57 30 81 74 81 151 0
71 -25 124 -72 152 -31 19 -56 20 -408 25 l-375 5 0 460 c0 445 -1 461 -20
495 -12 19 -35 42 -52 53 -38 22 -116 30 -163 16z"/>
<path d="M3113 1738 c-50 -11 -99 -61 -108 -110 -3 -18 -5 -290 -3 -603 3
-647 -2 -609 86 -647 53 -24 146 -21 187 6 61 40 60 27 65 541 l5 470 180 3
c225 4 280 -2 311 -33 32 -32 31 -75 -2 -106 -23 -22 -36 -24 -163 -30 -118
-5 -143 -9 -174 -28 -66 -40 -87 -149 -44 -232 12 -24 113 -158 225 -296 234
-291 254 -308 362 -308 46 0 74 5 93 18 59 39 86 119 66 202 -11 44 -26 64
-132 172 -77 78 -115 124 -106 127 8 2 26 7 40 10 71 15 134 89 171 201 19 59
23 91 23 200 0 121 -2 134 -27 188 -35 74 -132 176 -206 215 -31 17 -84 35
-116 41 -73 13 -673 13 -733 -1z"/>
<path d="M4715 1734 c-167 -31 -278 -109 -327 -232 -20 -49 -23 -75 -23 -187
0 -112 4 -138 23 -186 45 -113 145 -191 288 -225 46 -11 137 -19 274 -23 173
-5 210 -9 233 -24 34 -22 45 -62 26 -96 -26 -46 -68 -52 -417 -58 -358 -7
-367 -8 -409 -72 -18 -26 -23 -48 -23 -95 0 -74 23 -123 71 -151 32 -19 52
-20 389 -20 378 0 417 4 533 54 64 28 141 102 172 167 74 156 47 384 -60 502
-48 54 -83 75 -180 108 -74 24 -97 27 -295 33 -235 7 -267 15 -284 64 -12 32
-3 51 38 81 26 20 44 21 374 26 236 3 353 9 367 17 55 32 70 61 73 146 2 68 0
87 -17 114 -42 66 -50 68 -416 70 -254 1 -349 -2 -410 -13z"/>
<path d="M5817 1736 c-21 -8 -47 -22 -57 -31 -44 -39 -45 -61 -45 -660 0 -552
1 -571 20 -604 31 -52 64 -72 133 -78 83 -8 142 20 172 81 20 43 20 53 18 624
-3 569 -3 581 -24 608 -11 15 -31 36 -45 46 -33 24 -124 32 -172 14z"/>
<path d="M6685 1743 c-29 -8 -73 -41 -88 -66 -8 -15 -14 -91 -17 -232 l-5
-210 -161 -6 c-181 -7 -212 -16 -248 -78 -27 -47 -27 -145 0 -192 37 -63 69
-73 249 -79 l160 -5 5 -212 c5 -194 7 -214 26 -240 46 -62 148 -81 232 -43 33
15 47 29 62 62 19 41 20 70 20 613 0 543 -1 572 -20 613 -15 33 -29 47 -62 62
-41 18 -108 24 -153 13z"/>
<path d="M7680 1740 c-120 -15 -251 -69 -351 -145 -220 -170 -312 -502 -213
-777 76 -209 229 -357 438 -424 459 -145 915 205 893 686 -8 187 -74 337 -203
465 -143 143 -363 219 -564 195z m236 -378 c120 -61 188 -170 189 -302 1 -211
-156 -361 -364 -348 -125 7 -228 74 -282 183 -96 196 -1 424 204 491 69 23
181 12 253 -24z"/>
<path d="M8728 1741 c-49 -10 -84 -34 -105 -74 -17 -30 -18 -76 -18 -617 0
-565 1 -586 20 -618 57 -94 250 -95 302 0 17 30 18 71 21 501 l3 468 224 -3
c209 -3 225 -4 252 -24 46 -34 44 -103 -5 -128 -18 -9 -73 -15 -158 -18 -126
-3 -133 -5 -168 -32 -46 -35 -58 -64 -58 -142 -1 -82 22 -127 76 -154 36 -17
62 -20 168 -20 148 0 209 10 284 47 165 81 270 285 236 459 -35 175 -180 322
-351 354 -60 11 -665 12 -723 1z"/>
</g>
</svg>
